# xmcd CD database file
#
# Track frame offsets:
#	150
#	14376
#	31550
#	44434
#	63713
#	77175
#	93993
#	112916
#	128633
#	146453
#	164607
#	184595
#	197608
#	219134
#	244420
#	264737
#	292323
#	306387
#
# Disc length: 4361 seconds
#
# Revision: 3
# Processed by: cddbd v1.5.2PL0 Copyright (c) Steve Scherf et al.
# Submitted via: CDex 1.51
#
DISCID=05110712
DTITLE=John Denver - Annie's Song
DYEAR=1900
DGENRE=Country
TTITLE0=John Denver - Annie's Song
TTITLE1=John Denver - A Country Girl In Paris
TTITLE2=John Denver - The Marvellous Toy
TTITLE3=John Denver - To The Wild Country
TTITLE4=John Denver - Eagle And The Hawk
TTITLE5=John Denver - Children Of The Universe
TTITLE6=John Denver - Rocky Mountain High
TTITLE7=John Denver - Rocky Mountain Suite
TTITLE8=John Denver - Bread And Roses
TTITLE9=John Denver - Windsong
TTITLE10=John Denver - Chained To The Wheel
TTITLE11=John Denver - American Child
TTITLE12=John Denver - Eagles And Horses (I'm Flying Again)
TTITLE13=John Denver - Amazon
TTITLE14=John Denver - All This Joy
TTITLE15=John Denver - A Little Further North
TTITLE16=John Denver - Ancient Rhymes
TTITLE17=John Denver - Sing Australia
EXTD=
EXTT0=
EXTT1=
EXTT2=
EXTT3=
EXTT4=
EXTT5=
EXTT6=
EXTT7=
EXTT8=
EXTT9=
EXTT10=
EXTT11=
EXTT12=
EXTT13=
EXTT14=
EXTT15=
EXTT16=
EXTT17=
PLAYORDER=
